<svg
  xmlns="http://www.w3.org/2000/svg"
  width="503"
  height="408"
  viewBox="0 0 503 408"
  fill="none"
  preserveAspectRatio="xMidYMid meet"
  role="img"
  aria-label="Eagle emblem"
>
  <path fill-rule="nonzero" fill="currentColor" d="M14.4642 8.06879C15.8588 11.4016 18.9965 17.3729 21.5066 21.4695C35.8006 45.2158 53.5111 62.0881 101.622 97.9853C108.386 102.985 122.61 112.497 127.421 115.135L130.908 117.01L126.515 112.983C124.144 110.761 119.124 106.109 115.289 102.707C111.524 99.2351 108.456 96.3883 108.595 96.2495C108.665 96.18 110.129 96.8743 111.803 97.777C114.661 99.374 128.955 105.554 147.014 113.052C156.079 116.871 159.774 119.649 161.866 124.578C163.749 128.953 163.47 130.55 159.705 137.701C157.125 142.631 156.916 143.256 157.195 147.839C157.334 151.38 157.962 153.74 159.356 156.657C168.699 175.681 193.522 183.805 210.954 173.598C213.882 171.932 223.644 162.211 223.086 161.586C222.877 161.448 221.204 162.142 219.251 163.114C217.369 164.086 214.231 165.058 212.348 165.266L209.001 165.683L210.745 164.433C222.807 155.893 231.105 141.728 228.873 133.535C227.27 127.772 220.227 122.773 212.557 122.009C209.629 121.732 208.792 121.384 209.35 120.829C209.838 120.343 213.046 120.065 217.578 120.065C226.015 120.065 230.059 121.384 234.382 125.481C236.055 127.078 236.474 127.286 235.986 126.245C233.754 122.009 226.154 117.635 217.926 115.899C212.209 114.649 209.42 114.58 206.77 115.621C204.19 116.593 200.983 119.649 200.983 121.246C200.983 124.162 199.728 122.148 198.542 117.288C197.008 111.178 197.566 108.4 201.262 104.581C206.979 98.5408 223.504 99.3045 227.828 105.831C229.71 108.678 232.081 110.136 234.87 110.206C237.589 110.275 240.03 108.4 240.03 106.178C240.03 104.581 241.564 103.748 244.562 103.748C245.329 103.748 247.212 103.401 248.745 102.915L251.535 102.151L246.654 101.179C244.004 100.624 237.798 100.138 232.918 100.068C225.457 99.86 223.783 99.6517 222.598 98.5408C220.925 97.0132 220.855 95.3468 222.249 92.6389C223.574 90.0004 226.084 88.7506 231.732 87.7785C237.241 86.8065 243.934 87.5702 256.067 90.4865C269.245 93.7498 278.519 93.4027 283.26 89.4449L285.352 87.6397L284.934 90.0004C283.539 97.7076 277.264 103.748 270.57 103.748C269.245 103.748 268.827 105.484 270.012 106.178C272.034 107.428 280.471 126.314 280.471 129.647C280.471 130.064 278.937 128.883 276.985 127.009C275.102 125.134 273.498 123.953 273.498 124.439C273.498 124.856 274.893 130.897 276.636 137.84C280.192 152.282 281.935 155.823 288.35 161.795C291.906 165.058 292.185 165.544 290.721 165.544C288.071 165.544 282.214 163.6 280.192 162.003C277.403 159.851 278.031 161.309 281.726 165.752C288.28 173.598 295.532 177.348 305.294 177.903C313.033 178.32 317.287 177.417 324.747 173.876C334.37 169.294 341.203 161.725 344.062 152.768C345.875 147.214 345.387 144.159 341.761 137.354C339.181 132.424 338.902 131.522 339.181 127.981C339.529 123.259 341.691 119.926 346.363 117.218C348.106 116.246 357.101 112.219 366.374 108.331C375.718 104.373 385.34 100.207 387.78 98.9574C390.151 97.7076 392.243 96.8049 392.382 96.9438C392.522 97.0827 391.127 98.4713 389.245 99.9989C387.362 101.596 382.411 106.109 378.297 109.997C371.464 116.524 371.046 117.01 374.253 115.205C384.643 109.372 415.531 87.1536 434.567 71.8088C453.602 56.464 468.733 40.0776 478.425 24.3857C481.981 18.6227 486.931 8.76313 488.605 4.11108C489.302 2.16694 490.139 0.361658 490.348 0.0839233C491.464 -1.16588 492.649 11.8182 492.231 20.7751C491.743 31.4679 490.418 37.9946 487.071 46.4655C477.1 71.6699 451.51 96.4578 416.787 114.649C412.185 117.01 408.768 119.024 409.186 119.024C410.581 119.024 427.664 112.983 435.613 109.65C452.208 102.707 473.265 90.5559 485.467 80.8352C487.977 78.891 492.719 74.7945 496.135 71.7394C499.482 68.6843 502.202 66.4624 502.202 66.8096C502.202 68.5454 498.646 81.1129 496.972 85.4178C487.28 109.72 464.41 128.606 431.359 139.507C421.249 142.839 414.486 144.506 403.19 146.519L393.777 148.186L408.419 147.839C423.062 147.561 430.941 146.728 443.98 144.02C458.971 140.965 476.961 134.646 488.814 128.397C495.578 124.787 495.647 124.995 490.836 133.258C478.634 154.365 458.483 167.558 432.475 171.446C421.11 173.182 397.612 172.418 385.758 169.988C382.202 169.224 386.107 170.96 393.777 173.46C410.302 178.945 429.616 181.375 449.558 180.542C455.694 180.264 463.155 179.639 466.153 179.153C469.081 178.667 471.522 178.459 471.522 178.737C471.522 179.5 461.621 188.735 457.925 191.373C446.141 199.775 432.196 203.594 416.508 202.83C404.166 202.205 392.312 198.803 376.763 191.373C373.068 189.638 369.791 188.041 369.372 187.902C367.908 187.416 373.207 191.512 379.831 196.026C397.821 208.246 414.276 215.189 432.754 218.314L439.657 219.425L434.776 222.688C419.924 232.548 404.515 233.797 386.944 226.576C377.809 222.827 365.468 214.425 355.497 205.191C349.849 199.914 350.477 201.233 358.565 211.718C370.976 227.687 381.993 237.408 396.426 245.046L402.144 248.101L399.704 249.142C387.501 254.211 374.881 253.1 363.167 246.087C352.778 239.769 341.133 226.785 333.672 213.106C330.883 208.038 330.814 208.801 333.184 216.3C338.484 233.103 347.757 248.656 360.029 261.571C363.725 265.39 363.794 265.598 362.26 266.015C359.68 266.639 351.313 265.598 346.921 264.07C331.79 258.863 320.215 243.935 312.964 220.05L311.848 216.578L312.197 223.591C312.894 237.755 316.659 252.197 322.725 263.237C324.399 266.431 325.654 269 325.445 269C324.329 269 315.544 265.32 313.731 264.07C306.549 259.21 301.389 252.197 298.112 242.963C296.299 237.686 296.16 236.852 296.16 224.84V212.273L294.904 215.467C285.561 239.213 283.748 245.115 283.678 252.336C283.609 259.28 285.212 263.723 290.651 271.986C294.974 278.513 307.455 290.802 313.452 294.343C315.962 295.871 318.054 297.329 318.123 297.537C318.193 299.204 307.107 299.343 301.11 297.815C298.879 297.19 296.927 296.843 296.787 296.982C296.02 297.676 312.336 314.063 320.006 320.312L323.702 323.297L329.28 321.423C336.043 319.201 340.018 319.062 343.853 321.006C349.152 323.714 352.08 330.935 350.198 336.629C349.361 339.267 348.106 340.031 348.106 337.878C348.106 336.281 344.898 333.226 342.179 332.185C339.878 331.282 334.37 331.143 332.138 331.838C330.744 332.254 330.883 332.532 334.021 336.004C339.041 341.489 340.087 343.919 339.041 348.293C337.926 352.807 334.23 356.764 330.047 357.875C328.443 358.292 326.909 358.57 326.77 358.431C326.63 358.292 327.327 356.625 328.234 354.751C331.441 348.502 330.256 342.878 324.678 337.739C321.958 335.309 321.261 334.962 318.193 334.962C312.266 334.962 308.013 340.031 309.617 345.238C310.035 346.627 310.314 347.877 310.175 348.016C309.965 348.155 308.641 347.044 307.037 345.447C300.901 339.336 302.993 332.046 311.918 328.921C313.8 328.227 315.334 327.533 315.334 327.324C315.334 327.116 312.824 325.38 309.756 323.506C294.277 313.924 290.93 311.494 285.352 305.869C279.146 299.69 275.73 295.038 271.546 287.122L269.175 282.54L269.454 290.177C269.733 296.704 270.152 298.926 272.313 305.314C275.172 313.715 282.633 328.713 288.559 338.087C294.137 346.974 294.974 348.849 295.811 353.987C296.369 357.597 296.299 359.611 295.462 363.569C294.904 366.346 294.416 368.915 294.416 369.332C294.416 370.443 285.561 361.347 281.517 356.139C275.102 347.738 270.291 337.392 264.364 319.201C263.109 315.312 261.924 312.188 261.784 312.327C261.436 312.743 265.55 332.324 269.663 349.543C274.335 368.846 274.544 370.026 273.917 374.192C273.429 377.317 272.662 378.636 263.318 391.898C261.087 395.161 257.949 400.021 256.346 402.799L253.487 407.798L253.069 392.731C252.79 384.468 252.232 369.54 251.744 359.611C250.698 338.364 250.349 339.892 249.164 370.026C248.746 381.066 248.188 394.189 247.979 399.049L247.49 408.006L245.468 403.979C244.283 401.757 240.797 396.203 237.659 391.689C227.828 377.525 227.897 377.594 227.618 372.873C227.409 369.471 228.176 365.027 231.244 351.626C235.707 331.976 239.332 314.688 239.332 313.368C239.263 312.813 238.077 316.007 236.613 320.381C231.244 336.281 226.224 347.668 221.692 353.918C218.903 357.875 208.095 369.679 207.328 369.679C207.049 369.679 206.77 369.262 206.77 368.776C206.77 368.36 206.352 365.999 205.794 363.638C205.097 360.236 205.097 358.292 205.724 354.056C206.491 349.335 207.188 347.668 212.557 338.642C226.224 315.66 232.36 299.482 232.36 286.15V282.123L229.71 287.192C221.97 302.12 212.627 311.632 197.357 320.034C194.01 321.839 190.105 324.339 188.711 325.45L186.201 327.533L189.687 328.852C196.311 331.352 199.1 335.379 197.566 340.447C196.939 342.669 192.128 348.571 191.5 347.946C191.361 347.807 191.57 346.558 191.988 345.169C193.243 340.656 189.548 335.379 184.946 334.962C181.18 334.615 179.925 335.101 176.997 337.739C171.419 342.878 170.233 348.502 173.441 354.751C174.347 356.625 175.045 358.222 174.975 358.361C174.208 359.056 168.769 356.348 166.398 354.056C162.563 350.238 161.308 345.863 163.052 342.253C163.679 340.864 165.771 338.017 167.654 336.004C170.861 332.532 170.931 332.324 169.397 331.907C168.56 331.699 166.12 331.49 164.028 331.49C158.589 331.49 153.708 334.615 153.569 338.087C153.499 339.475 153.499 339.475 152.523 338.156C148.897 333.365 152.104 323.992 158.519 320.659C161.518 319.201 166.608 319.478 172.534 321.492L177.903 323.367L182.645 319.548C190.245 313.438 195.335 308.647 200.355 302.676C203.005 299.69 205.027 297.121 204.957 296.982C204.818 296.913 203.075 297.26 200.983 297.815C196.799 298.926 187.874 299.204 184.737 298.371C182.924 297.815 182.993 297.746 188.223 294.205C202.308 284.97 214.928 269.07 217.717 257.335C219.181 251.156 217.369 243.518 209.908 223.799L205.515 212.273L205.445 224.493C205.445 235.88 205.306 237.13 203.563 242.268C199.24 255.114 191.639 263.446 180.553 267.542C178.322 268.306 176.369 269 176.23 269C176.09 269 177.485 265.945 179.437 262.265C185.504 250.461 188.641 238.033 189.338 223.174C189.687 216.092 189.617 216.161 186.689 225.535C180.553 245.462 169.745 258.724 155.312 264.07C151.128 265.667 138.229 266.987 138.229 265.945C138.229 265.598 140.739 262.751 143.807 259.488C155.033 247.545 163.819 232.131 168.63 215.953C169.536 212.898 170.164 210.329 170.024 210.19C169.885 210.051 168.909 211.579 167.863 213.592C162.773 223.313 153.917 234.353 146.178 240.671C131.884 252.267 116.962 255.322 103.226 249.42L99.8095 247.962L106.015 244.698C109.502 242.893 114.452 239.908 117.032 238.033C126.515 231.298 139.205 217.967 148.409 205.121L151.128 201.302L145.899 205.816C131.326 218.453 118.845 225.813 105.806 229.493C95.626 232.409 82.5174 231.298 73.7318 226.854C70.2455 225.049 62.9242 220.119 62.9242 219.563C62.9242 219.286 63.8306 219.008 65.016 219.008C68.3629 219.008 80.9136 216.37 86.5615 214.495C93.325 212.273 108.874 204.774 115.359 200.539C121.216 196.859 132.79 188.388 132.511 188.11C132.372 187.971 129.792 189.082 126.724 190.61C97.3691 204.913 73.1043 206.857 52.4652 196.442C44.865 192.623 34.9638 184.916 31.617 180.195L30.2922 178.32L35.94 179.223C51.2101 181.514 75.7539 180.958 91.5121 177.973C98.6242 176.584 118.427 170.613 117.799 169.988C117.66 169.78 114.592 170.196 110.966 170.752C100.646 172.557 80.2164 172.904 70.7336 171.515C45.9109 167.835 26.6664 156.518 14.6734 138.396C10.6293 132.285 6.65486 124.926 7.63104 125.412C7.90994 125.55 10.7687 126.939 13.9064 128.605C29.5252 136.59 52.3258 143.534 72.8254 146.45C81.332 147.7 109.292 148.602 103.714 147.422C101.832 147.005 96.3232 145.894 91.5121 144.992C74.4988 141.52 54.557 133.882 40.4722 125.342C18.9965 112.427 6.09705 94.6525 0.588653 70.559C-0.457246 65.9764 -0.17834 65.3515 1.98318 67.7122C4.42361 70.4896 17.1836 81.1824 23.1801 85.4178C39.5658 97.0827 64.3885 109.581 85.5156 116.663C89.3506 117.982 92.6277 119.024 92.8369 119.024C93.1158 119.024 89.2111 116.732 84.1908 113.955C62.9939 102.082 51.4193 93.6804 38.5199 80.8352C23.9471 66.3236 15.0221 51.3259 11.1871 34.8701C10.0017 29.7321 9.65311 26.1215 9.65311 17.3035C9.58338 5.43032 10.3504 -1.8602 11.3963 0.639404C11.6752 1.40317 13.0697 4.73597 14.4642 8.06879Z"/>
  <path fill-rule="nonzero" fill="currentColor" d="M255.718 34.2453C256.973 35.3562 258.368 36.3282 258.856 36.5365C259.274 36.6754 258.368 38.0641 256.834 39.7305C253.766 42.9244 253.069 44.5908 255.3 43.341C256.067 42.9939 257.949 42.6467 259.483 42.6467C262.133 42.6467 262.342 42.7856 262.342 44.6603C262.342 47.2988 259.971 50.1455 257.252 50.8399C255.23 51.3953 255.021 51.6731 255.23 53.8255C255.788 59.3108 260.181 62.9908 266.247 62.9908C270.57 62.9908 273.847 61.3243 276.078 57.9221C278.031 55.0753 278.1 52.0897 276.288 50.2844C275.381 49.3818 274.893 47.9931 274.893 46.3961V43.8271L278.379 44.1742C281.168 44.452 282.075 44.2437 283.051 43.1327C284.306 41.744 288.978 39.175 290.163 39.175C290.512 39.175 290.093 40.4942 289.187 42.0912C286.746 46.4655 282.842 56.95 280.122 66.1847C278.867 70.6284 277.612 74.1696 277.403 74.1696C277.194 74.1001 270.5 73.8918 262.482 73.6141C249.443 73.1975 231.035 73.8918 226.015 75.0028C224.202 75.4194 224.132 75.2805 222.947 70.0035C221.482 63.2685 216.183 47.9237 213.812 43.2022C212.836 41.3275 212.209 39.5916 212.418 39.3833C212.976 38.8279 217.438 41.258 219.112 42.9939C220.506 44.452 221.064 44.5909 224.55 44.2437L228.385 43.8271L227.967 46.535C227.688 48.0625 226.851 49.7984 226.015 50.4927C223.156 52.784 225.736 59.3802 230.477 61.8798C233.545 63.4768 239.123 63.4073 242.121 61.6715C246.305 59.3108 249.512 50.9787 246.305 50.9787C244.074 50.9787 241.633 49.0346 240.797 46.6739C239.402 42.7161 239.611 42.4384 244.144 42.7856L248.327 43.0633L247.281 41.1192C246.723 40.0777 245.468 38.689 244.492 38.0641L242.749 36.8837L244.911 35.6339C246.096 34.8702 248.048 32.926 249.234 31.1902L251.465 28.0656L252.441 30.1487C252.999 31.329 254.463 33.1343 255.718 34.2453Z"/>
  <path fill-rule="nonzero" fill="currentColor" d="M234.8 104.72C235.497 105.206 236.753 105.484 237.52 105.345C238.984 105.068 238.984 105.068 237.659 106.109C236.683 106.873 236.125 107.012 235.776 106.456C235.497 106.04 234.94 105.901 234.521 106.109C234.103 106.387 233.754 106.248 233.754 105.901C233.754 105.484 233.336 105.137 232.778 105.137C232.22 105.137 231.523 104.79 231.314 104.443C230.686 103.401 233.266 103.609 234.8 104.72Z"/>
</svg>
